<svg width="204" height="48" viewBox="0 0 204 48" fill="none" xmlns="http://www.w3.org/2000/svg">
<path d="M66.9782 16C63.6553 16 61.4322 17.6294 61.4322 20.1537C61.4322 25.9136 70.4617 23.6648 70.4386 27.8872C70.4386 29.4247 68.9949 30.3657 66.6802 30.3657C64.8698 30.3657 62.8303 29.5397 61.3405 28.0938L60.5156 29.746C62.0282 31.1919 64.3199 32.2015 66.6574 32.2015C70.0948 32.2015 72.4553 30.4804 72.4553 27.7955C72.4784 21.9665 63.4489 24.1236 63.4489 19.9929C63.4489 18.639 64.801 17.8589 66.8635 17.8589C68.147 17.8589 69.8429 18.2491 71.2866 19.2128L72.0657 17.4917C70.7366 16.5966 68.8344 16 66.9782 16ZM83.3407 16.023C78.6427 16.023 74.9301 19.5569 74.9301 24.1009C74.9301 28.6215 78.6427 32.2245 83.3407 32.2245C88.0157 32.2245 91.7284 28.6215 91.7284 24.1009C91.7284 19.58 88.0157 16.023 83.3407 16.023ZM83.3407 17.7669C86.9156 17.7669 89.8491 20.5667 89.8491 24.1009C89.8491 27.6347 86.9156 30.4576 83.3407 30.4576C79.7656 30.4576 76.7865 27.6347 76.7865 24.1009C76.7865 20.5667 79.7656 17.7669 83.3407 17.7669ZM111.528 32.1329V16.0689H109.282L103.438 27.6347L97.5718 16.0689H95.303V32.1329H97.0447V18.8915L102.866 30.4345H103.966L109.809 18.8915L109.832 32.1329H111.528ZM126.791 28.0708L128.578 32.1329H130.572L123.399 16.0689H121.497L114.301 32.1329H116.249L118.036 28.0708H126.791ZM126.011 26.3038H118.815L122.391 18.1571L126.011 26.3038ZM138.387 32.1329L144.941 16.0689H143.016L137.47 29.9985L131.947 16.0689H129.976L136.484 32.1329H138.387ZM158.622 17.8358V16.0689H147.736V32.1329H158.92V30.3887H149.57V24.881H157.659V23.1141H149.57V17.8358H158.622ZM162.884 16.0689V32.1329H169.301C174.022 32.1329 177.62 28.6676 177.62 24.1009C177.62 19.5341 174.045 16.0689 169.37 16.0689H162.884ZM164.717 17.8358H169.324C172.922 17.8358 175.763 20.5209 175.763 24.1236C175.763 27.7036 172.967 30.3887 169.392 30.3887H164.717V17.8358ZM183.028 16.0689H181.194V32.1329H183.028V16.0689ZM194.967 16.023C190.315 16.023 186.602 19.58 186.602 24.0778C186.602 28.6215 190.269 32.2245 194.898 32.2245C197.121 32.2245 199.276 31.2377 200.857 29.746L199.734 28.484C198.473 29.6772 196.755 30.4118 194.99 30.4118C191.369 30.4118 188.459 27.5889 188.459 24.0778C188.459 20.5437 191.369 17.7442 194.99 17.7442C196.755 17.7442 198.496 18.5013 199.734 19.7635L200.834 18.3638C199.298 16.9179 197.167 16.023 194.967 16.023Z" fill="white"/>
<path d="M48.1505 28.1897C48.3899 26.8291 48.5156 25.4293 48.5156 24C48.5156 23.5168 48.5004 23.0368 48.4721 22.5605C46.188 26.2237 43.1029 29.4259 38.5511 29.6936C29.1782 30.171 21.7119 19.5268 12.339 19.8446C7.09122 19.8446 3.34374 23.4435 0.804444 27.7284C1.0327 29.1921 1.39378 30.6115 1.87396 31.9749C4.50231 28.8788 7.90602 26.7052 12.339 26.5889C22.188 26.2711 29.8138 36.7557 38.3918 36.4379C43.0889 36.1247 46.088 32.1069 48.1505 28.1897ZM48.1558 19.8474C47.9332 18.573 47.6108 17.3328 47.1957 16.1358C45.0633 18.9626 42.3067 21.1818 38.5511 21.4027C29.1782 21.8801 21.7119 11.2358 12.339 11.5537C7.23907 11.5537 3.55621 14.953 1.02201 19.0776C0.690697 20.6665 0.515625 22.3129 0.515625 24C0.515625 24.4565 0.529622 24.9097 0.554814 25.3598C3.33356 21.3765 7.12456 18.3936 12.339 18.2567C22.188 17.9389 29.8138 28.4236 38.3918 28.106C43.093 27.7925 46.0931 23.7679 48.1558 19.8474ZM46.4947 14.3502C42.7798 5.90101 34.3374 0 24.5156 0C14.5088 0 5.93367 6.12519 2.33148 14.8301C4.89393 12.014 8.15921 10.0755 12.339 9.96581C22.188 9.64799 29.8138 20.1327 38.3918 19.8151C41.9624 19.5769 44.5518 17.1982 46.4947 14.3502ZM2.49968 33.5648C6.195 42.0595 14.6608 48 24.5156 48C34.3471 48 42.7963 42.0875 46.5056 33.6251C44.4755 36.0285 41.9136 37.8278 38.5511 38.0258C29.1782 38.5029 21.7119 27.8589 12.339 28.1768C8.15463 28.1768 4.92447 30.4654 2.49968 33.5648Z" fill="white"/>
</svg>
